<svg width="116" height="34" viewBox="0 0 116 34" fill="none" xmlns="http://www.w3.org/2000/svg">
<path d="M11.6498 10C11.6498 10 4.1514 17.7851 4.47698 24.8151C4.90099 33.9512 14.5271 34 14.5271 34C14.5271 34 18.4492 32.2894 17.2326 27.4863C15.7385 21.5967 10.5292 17.8596 11.6524 10" fill="#5ABEEC"/>
<path d="M16.5083 9.41951C14.9536 4.41256 17.1165 2 17.1165 2C17.1165 2 10.1873 7.98273 11.6764 14.4444C13.1655 20.906 17.4521 23.4748 17.7221 28.5612C17.8899 31.7139 15.5251 33.1071 14.091 33.604C13.4723 33.8191 13.024 33.8832 13.024 33.8832C13.024 33.8832 13.9861 34.1956 15.6929 33.7986C23.8308 31.6576 17.806 17.8788 17.806 17.8788C22.3416 26.438 21.2221 30.4026 19.2978 32.2389C19.7068 31.9854 20.1341 31.6985 20.5772 31.3682C28.3742 25.5852 18.097 14.5443 16.5056 9.41951" fill="#6C9740"/>
<path d="M9.54631 33C9.54631 33 -5.52094 27.4702 10.8169 9.25342C10.8169 9.25342 11.4997 6.23282 6.5996 10.251C6.5996 10.251 16.1764 1.96267 16.4536 0.577078C16.7719 -1.0151 11.2045 0.589674 6.38399 6.61323C6.38399 6.61323 1.60456 12.856 0.914086 18.0028C0.914086 18.0028 -2.50236 31.4305 9.54631 33Z" fill="#31441F"/>
<path d="M38.875 15.6781C37.2393 15.1312 34.553 14.4943 34.553 12.1017C34.553 10.6282 35.6385 9.4045 36.953 9.4045C38.2675 9.4045 39.3331 10.6282 39.3331 12.0868L44.0335 10.9679C43.548 7.02941 40.548 4 36.9256 4C32.9546 4 29.7331 7.60882 29.7331 12.0893C29.7331 15.7081 32.27 18.3654 35.1405 19.4692C36.7687 20.1061 39.6542 20.4433 39.6542 22.8683C39.6542 24.3418 38.2102 25.568 36.9032 25.568L36.9231 25.593C35.5936 25.593 34.1671 24.3842 34.1671 22.9032L29.4667 24.0321C30.0019 27.9881 33.2957 31 36.938 31C40.904 31 44.4667 27.3837 44.4667 22.9032C44.4667 19.2045 41.8451 16.6521 38.8725 15.6856" fill="#5ABEEC"/>
<path d="M42.4667 31H47.701L49.332 26.8308H57.5861L59.2171 31H64.4667L53.4603 3L42.4667 31ZM55.6723 21.9625H51.2458L53.473 16.1577L55.6723 21.9625Z" fill="#5ABEEC"/>
<path d="M65.4667 31H79.4667V25.6258H70.1325V20.2035H77.1325V14.8142H70.1325V9.38938H79.4667V4H65.4667V31Z" fill="#5ABEEC"/>
<path d="M89.5032 15.6781C87.7587 15.1312 84.8938 14.4943 84.8938 12.1017C84.8938 10.6282 86.0515 9.4045 87.4534 9.4045C88.8553 9.4045 89.9891 10.6282 89.9891 12.0868L95.002 10.9679C94.4843 7.02941 91.2848 4 87.4215 4C83.1866 4 79.7508 7.60882 79.7508 12.0893C79.7508 15.7081 82.4564 18.3654 85.5178 19.4692C87.2543 20.1061 90.3316 20.4433 90.3316 22.8683C90.3316 24.3418 88.7916 25.568 87.3976 25.568L87.4215 25.593C86.0037 25.593 84.4796 24.3842 84.4796 22.9032L79.4667 24.0321C80.0375 27.9881 83.5503 31 87.4348 31C91.6645 31 95.4667 27.3837 95.4667 22.9032C95.4667 19.2045 92.6708 16.6521 89.5005 15.6856" fill="#5ABEEC"/>
<path d="M104.458 3L93.4668 31H98.7011L100.33 26.8308H108.586L110.217 31H115.467L104.46 3H104.458ZM102.246 21.9625L104.473 16.1577L106.672 21.9625H102.246Z" fill="#5ABEEC"/>
</svg>
