<svg width="162" height="16" viewBox="0 0 162 16" fill="none" xmlns="http://www.w3.org/2000/svg">
<path d="M9.57031 1.7413C10.7419 1.7413 11.8295 1.8428 12.8329 2.04581C13.8422 2.24302 14.7673 2.49823 15.6083 2.81144V5.73473C15.2777 5.54912 14.9036 5.36932 14.486 5.19531C14.0742 5.02131 13.6246 4.8676 13.1374 4.7342C12.6502 4.60079 12.1282 4.49349 11.5714 4.41229C11.0146 4.33109 10.4287 4.29048 9.81392 4.29048C9.04829 4.29048 8.38127 4.34559 7.81285 4.45579C7.24444 4.56599 6.75722 4.7139 6.35121 4.8995C5.94519 5.08511 5.61168 5.30262 5.35067 5.55202C5.08967 5.79563 4.88376 6.05664 4.73295 6.33505C4.58215 6.61346 4.47775 6.89767 4.41974 7.18768C4.36174 7.47769 4.33274 7.759 4.33274 8.03161C4.33274 8.26941 4.35594 8.52752 4.40234 8.80593C4.45455 9.08434 4.54735 9.36275 4.68075 9.64116C4.81996 9.91957 5.01136 10.1864 5.25497 10.4416C5.49858 10.6968 5.81469 10.923 6.2033 11.1202C6.59771 11.3174 7.07043 11.4769 7.62145 11.5987C8.17247 11.7147 8.82789 11.7727 9.58771 11.7727C9.97052 11.7727 10.304 11.7611 10.5882 11.7379C10.8725 11.7147 11.1306 11.6828 11.3626 11.6422C11.6004 11.6016 11.8208 11.5523 12.0238 11.4943C12.2326 11.4363 12.4472 11.3754 12.6676 11.3116V9.86737H9.04829V7.24858H15.8954V13.3562C15.4662 13.5012 14.9848 13.6346 14.4512 13.7564C13.9234 13.8724 13.3752 13.971 12.8068 14.0522C12.2442 14.1392 11.6787 14.2059 11.1103 14.2523C10.5418 14.2987 10.0053 14.3219 9.50071 14.3219C8.71768 14.3219 7.96656 14.2697 7.24734 14.1653C6.52811 14.0609 5.85529 13.9014 5.22887 13.6868C4.60825 13.4664 4.03983 13.188 3.52361 12.8516C3.0132 12.5152 2.57528 12.1149 2.20987 11.6509C1.85026 11.1869 1.56895 10.6562 1.36594 10.0588C1.16874 9.45555 1.07013 8.77983 1.07013 8.03161C1.07013 7.28918 1.17454 6.61636 1.38335 6.01314C1.59215 5.40992 1.88216 4.8763 2.25337 4.41229C2.63039 3.94827 3.0799 3.54806 3.60192 3.21165C4.12973 2.87524 4.70685 2.59973 5.33327 2.38512C5.96549 2.16471 6.63832 2.00231 7.35174 1.89791C8.07096 1.7935 8.81049 1.7413 9.57031 1.7413ZM18.1283 14V2.04581H30.2304V4.59499H21.4431V6.56996H29.7779V9.11914H21.4431V11.4508H30.3522V14H18.1283ZM47.6974 8.03161C47.6974 9.05824 47.5089 9.96597 47.1319 10.7548C46.7549 11.5378 46.2154 12.1932 45.5136 12.7211C44.8118 13.2489 43.9592 13.6491 42.9557 13.9217C41.9581 14.1885 40.8358 14.3219 39.5887 14.3219C38.3417 14.3219 37.2135 14.1885 36.2043 13.9217C35.2009 13.6491 34.3454 13.2489 33.6377 12.7211C32.9301 12.1932 32.3849 11.5378 32.0021 10.7548C31.6193 9.96597 31.4279 9.05824 31.4279 8.03161C31.4279 7.00497 31.6193 6.10014 32.0021 5.31712C32.3849 4.52829 32.9301 3.86997 33.6377 3.34215C34.3454 2.81434 35.2009 2.41702 36.2043 2.15021C37.2135 1.87761 38.3417 1.7413 39.5887 1.7413C40.8358 1.7413 41.9581 1.87761 42.9557 2.15021C43.9592 2.41702 44.8118 2.81434 45.5136 3.34215C46.2154 3.86997 46.7549 4.52829 47.1319 5.31712C47.5089 6.10014 47.6974 7.00497 47.6974 8.03161ZM44.4348 8.03161C44.4348 7.58499 44.3623 7.14128 44.2173 6.70046C44.0781 6.25385 43.8258 5.85363 43.4604 5.49982C43.1007 5.14601 42.6077 4.8589 41.9813 4.6385C41.3549 4.41809 40.5574 4.30788 39.5887 4.30788C38.9391 4.30788 38.3678 4.36009 37.8748 4.46449C37.3818 4.56309 36.9554 4.7023 36.5958 4.8821C36.2362 5.06191 35.9346 5.27362 35.691 5.51722C35.4474 5.75503 35.2531 6.01314 35.1081 6.29155C34.9631 6.56416 34.8587 6.85127 34.7949 7.15288C34.7369 7.44869 34.7079 7.7416 34.7079 8.03161C34.7079 8.32742 34.7369 8.62613 34.7949 8.92773C34.8587 9.22934 34.9631 9.51935 35.1081 9.79776C35.2531 10.0704 35.4474 10.3256 35.691 10.5634C35.9346 10.8012 36.2362 11.01 36.5958 11.1898C36.9554 11.3638 37.3818 11.503 37.8748 11.6074C38.3678 11.706 38.9391 11.7553 39.5887 11.7553C40.5574 11.7553 41.3549 11.6451 41.9813 11.4247C42.6077 11.2043 43.1007 10.9172 43.4604 10.5634C43.8258 10.2096 44.0781 9.81226 44.2173 9.37145C44.3623 8.92483 44.4348 8.47822 44.4348 8.03161Z" fill="#17405D"/>
<path d="M66.6757 14V3.82937L60.107 14H59.1413L52.5639 3.78587V14H51.4763V2.04581H52.6422L59.6546 12.8777L66.5887 2.04581H67.7458V14H66.6757ZM84.8823 8.03161C84.8823 9.10464 84.688 10.0327 84.2994 10.8157C83.9107 11.5929 83.3771 12.2367 82.6985 12.7472C82.0199 13.2518 81.2195 13.6259 80.2972 13.8695C79.375 14.1131 78.3803 14.2349 77.313 14.2349C76.24 14.2349 75.2395 14.1131 74.3114 13.8695C73.3834 13.6259 72.5772 13.2518 71.8928 12.7472C71.2083 12.2367 70.6718 11.5929 70.2832 10.8157C69.8946 10.0327 69.7003 9.10464 69.7003 8.03161C69.7003 7.31818 69.7902 6.67146 69.97 6.09144C70.1498 5.50562 70.4021 4.98361 70.7269 4.52539C71.0517 4.06138 71.4432 3.66116 71.9015 3.32475C72.3655 2.98834 72.8788 2.70993 73.4414 2.48953C74.0098 2.26332 74.6188 2.09801 75.2685 1.99361C75.9181 1.88341 76.5996 1.8283 77.313 1.8283C78.3803 1.8283 79.375 1.95011 80.2972 2.19372C81.2195 2.43732 82.0199 2.81434 82.6985 3.32475C83.3771 3.82937 83.9107 4.47319 84.2994 5.25622C84.688 6.03344 84.8823 6.95857 84.8823 8.03161ZM83.7599 8.03161C83.7599 7.18478 83.6207 6.43655 83.3423 5.78693C83.0697 5.13731 82.6637 4.59209 82.1243 4.15128C81.5849 3.70466 80.912 3.36825 80.1058 3.14205C79.3054 2.91004 78.3745 2.79404 77.313 2.79404C76.2516 2.79404 75.3149 2.91004 74.5028 3.14205C73.6966 3.37405 73.0209 3.71337 72.4757 4.15998C71.9305 4.60079 71.5186 5.14891 71.2402 5.80433C70.9618 6.45395 70.8226 7.19638 70.8226 8.03161C70.8226 8.87843 70.9618 9.62666 71.2402 10.2763C71.5186 10.9259 71.9305 11.474 72.4757 11.9206C73.0209 12.3614 73.6966 12.6979 74.5028 12.9299C75.3149 13.1561 76.2516 13.2692 77.313 13.2692C78.3745 13.2692 79.3054 13.1561 80.1058 12.9299C80.912 12.6979 81.5849 12.3614 82.1243 11.9206C82.6637 11.474 83.0697 10.9259 83.3423 10.2763C83.6207 9.62666 83.7599 8.87843 83.7599 8.03161ZM98.3037 14L87.9155 3.47266V14H86.828V2.04581H88.0286L98.4168 12.608V2.04581H99.4869V14H98.3037ZM102.268 14V2.04581H103.355V14H102.268ZM110.982 3.03764V14H109.904V3.03764H104.466V2.04581H116.42V3.03764H110.982ZM131.503 8.03161C131.503 9.10464 131.309 10.0327 130.92 10.8157C130.532 11.5929 129.998 12.2367 129.319 12.7472C128.641 13.2518 127.84 13.6259 126.918 13.8695C125.996 14.1131 125.001 14.2349 123.934 14.2349C122.861 14.2349 121.86 14.1131 120.932 13.8695C120.004 13.6259 119.198 13.2518 118.514 12.7472C117.829 12.2367 117.293 11.5929 116.904 10.8157C116.516 10.0327 116.321 9.10464 116.321 8.03161C116.321 7.31818 116.411 6.67146 116.591 6.09144C116.771 5.50562 117.023 4.98361 117.348 4.52539C117.673 4.06138 118.064 3.66116 118.522 3.32475C118.986 2.98834 119.5 2.70993 120.062 2.48953C120.631 2.26332 121.24 2.09801 121.889 1.99361C122.539 1.88341 123.221 1.8283 123.934 1.8283C125.001 1.8283 125.996 1.95011 126.918 2.19372C127.84 2.43732 128.641 2.81434 129.319 3.32475C129.998 3.82937 130.532 4.47319 130.92 5.25622C131.309 6.03344 131.503 6.95857 131.503 8.03161ZM130.381 8.03161C130.381 7.18478 130.242 6.43655 129.963 5.78693C129.691 5.13731 129.285 4.59209 128.745 4.15128C128.206 3.70466 127.533 3.36825 126.727 3.14205C125.926 2.91004 124.995 2.79404 123.934 2.79404C122.873 2.79404 121.936 2.91004 121.124 3.14205C120.318 3.37405 119.642 3.71337 119.097 4.15998C118.551 4.60079 118.14 5.14891 117.861 5.80433C117.583 6.45395 117.444 7.19638 117.444 8.03161C117.444 8.87843 117.583 9.62666 117.861 10.2763C118.14 10.9259 118.551 11.474 119.097 11.9206C119.642 12.3614 120.318 12.6979 121.124 12.9299C121.936 13.1561 122.873 13.2692 123.934 13.2692C124.995 13.2692 125.926 13.1561 126.727 12.9299C127.533 12.6979 128.206 12.3614 128.745 11.9206C129.285 11.474 129.691 10.9259 129.963 10.2763C130.242 9.62666 130.381 8.87843 130.381 8.03161ZM134.537 8.88423V14H133.449V2.04581H139.4C140.311 2.04581 141.091 2.11831 141.74 2.26332C142.39 2.40252 142.921 2.61713 143.333 2.90714C143.75 3.19135 144.055 3.54806 144.246 3.97727C144.437 4.40649 144.533 4.9082 144.533 5.48242C144.533 6.37565 144.298 7.09198 143.828 7.63139C143.359 8.16501 142.602 8.53042 141.558 8.72763L145.638 14H144.272L140.418 8.84943C140.256 8.86103 140.09 8.86973 139.922 8.87553C139.754 8.88133 139.58 8.88423 139.4 8.88423H134.537ZM143.411 5.48242C143.411 4.97201 143.321 4.56019 143.141 4.24698C142.961 3.92797 142.668 3.68146 142.262 3.50746C141.856 3.33345 141.323 3.21745 140.662 3.15945C140.006 3.09565 139.2 3.06374 138.243 3.06374H134.537V7.8663H138.208C139.165 7.8663 139.974 7.8402 140.635 7.788C141.297 7.73 141.833 7.61689 142.245 7.44869C142.657 7.27468 142.953 7.03397 143.132 6.72656C143.318 6.41335 143.411 5.99864 143.411 5.48242ZM157.989 14L156.345 10.8505H148.228L146.583 14H145.391L151.647 2.04581H152.926L159.181 14H157.989ZM152.291 3.09855L148.758 9.84996H155.814L152.291 3.09855Z" fill="#17405D"/>
</svg>
